<svg width="48" height="48" viewBox="0 0 48 48" fill="none" xmlns="http://www.w3.org/2000/svg">
<rect width="48" height="48" fill="url(#paint0_radial_3785_4626)"/>
<path d="M28.3333 19.6667V25.0834C28.3333 25.9453 28.6757 26.772 29.2852 27.3815C29.8947 27.9909 30.7214 28.3334 31.5833 28.3334C32.4453 28.3334 33.2719 27.9909 33.8814 27.3815C34.4909 26.772 34.8333 25.9453 34.8333 25.0834V24C34.8332 21.555 34.0059 19.1819 32.486 17.2666C30.9661 15.3513 28.8431 14.0065 26.462 13.4508C24.0809 12.8952 21.5819 13.1613 19.3713 14.206C17.1606 15.2507 15.3684 17.0125 14.286 19.2049C13.2036 21.3973 12.8947 23.8914 13.4095 26.2816C13.9243 28.6719 15.2325 30.8177 17.1215 32.3701C19.0104 33.9226 21.369 34.7904 23.8137 34.8324C26.2584 34.8745 28.6454 34.0883 30.5866 32.6017M28.3333 24C28.3333 26.3933 26.3932 28.3334 24 28.3334C21.6067 28.3334 19.6666 26.3933 19.6666 24C19.6666 21.6068 21.6067 19.6667 24 19.6667C26.3932 19.6667 28.3333 21.6068 28.3333 24Z" stroke="#070EA0" stroke-width="1.5" stroke-linecap="round" stroke-linejoin="round"/>
<defs>
<radialGradient id="paint0_radial_3785_4626" cx="0" cy="0" r="1" gradientTransform="matrix(48 48 -51.392 46.1477 0 0)" gradientUnits="userSpaceOnUse">
<stop stop-color="#FFF6E5"/>
<stop offset="1" stop-color="#DAE2F2"/>
</radialGradient>
</defs>
</svg>
